REM GENRE Electronic
REM DATE 1995
REM DISCID 680E2A08
REM COMMENT "ExactAudioCopy v0.95b3"
PERFORMER "Juno Reactor"
TITLE "Beyond The Infinite"
FILE "01 - Guardian Angel.wav" WAVE
  TRACK 01 AUDIO
    TITLE "Guardian Angel"
    PERFORMER "Juno Reactor"
    INDEX 01 00:00:00
  TRACK 02 AUDIO
    TITLE "Magnetic"
    PERFORMER "Juno Reactor"
    INDEX 00 07:11:70
FILE "02 - Magnetic.wav" WAVE
    INDEX 01 00:00:00
  TRACK 03 AUDIO
    TITLE "Ice Cube"
    PERFORMER "Juno Reactor"
    INDEX 00 08:08:18
FILE "03 - Ice Cube.wav" WAVE
    INDEX 01 00:00:00
  TRACK 04 AUDIO
    TITLE "Feel the Universe"
    PERFORMER "Juno Reactor"
    INDEX 00 07:03:18
FILE "04 - Feel the Universe.wav" WAVE
    INDEX 01 00:00:00
  TRACK 05 AUDIO
    TITLE "Samurai"
    PERFORMER "Juno Reactor"
    INDEX 00 07:39:55
FILE "05 - Samurai.wav" WAVE
    INDEX 01 00:00:00
  TRACK 06 AUDIO
    TITLE "Silver"
    PERFORMER "Juno Reactor"
    INDEX 00 08:17:05
FILE "06 - Silver.wav" WAVE
    INDEX 01 00:00:00
  TRACK 07 AUDIO
    TITLE "Rotorblade"
    PERFORMER "Juno Reactor"
    INDEX 00 06:36:00
FILE "07 - Rotorblade.wav" WAVE
    INDEX 01 00:00:00
  TRACK 08 AUDIO
    TITLE "Mars"
    PERFORMER "Juno Reactor"
    INDEX 00 08:19:40
FILE "08 - Mars.wav" WAVE
    INDEX 01 00:00:00
